<mxfile host="app.diagrams.net" modified="2023-11-04T11:47:36.750Z" agent="Mozilla/5.0 (Windows NT 10.0; Win64; x64) AppleWebKit/537.36 (KHTML, like Gecko) Chrome/119.0.0.0 Safari/537.36" etag="AuwDmuoVjgDYuH3M4rie" version="22.0.8" type="github">
  <diagram name="第 1 页" id="t_VtDXMTlVzGKjbYf4tj">
    <mxGraphModel dx="1050" dy="542" grid="1" gridSize="10" guides="1" tooltips="1" connect="1" arrows="1" fold="1" page="1" pageScale="1" pageWidth="827" pageHeight="1169" math="0" shadow="0">
      <root>
        <mxCell id="0" />
        <mxCell id="1" parent="0" />
        <mxCell id="mnHLrNaxahezzFVTDHBt-7" style="edgeStyle=orthogonalEdgeStyle;rounded=0;orthogonalLoop=1;jettySize=auto;html=1;exitX=0.5;exitY=1;exitDx=0;exitDy=0;entryX=0.5;entryY=0;entryDx=0;entryDy=0;" edge="1" parent="1" source="mnHLrNaxahezzFVTDHBt-1" target="mnHLrNaxahezzFVTDHBt-4">
          <mxGeometry relative="1" as="geometry" />
        </mxCell>
        <mxCell id="mnHLrNaxahezzFVTDHBt-1" value="组网" style="rounded=0;whiteSpace=wrap;html=1;" vertex="1" parent="1">
          <mxGeometry x="250" y="110" width="120" height="60" as="geometry" />
        </mxCell>
        <mxCell id="mnHLrNaxahezzFVTDHBt-3" style="edgeStyle=orthogonalEdgeStyle;rounded=0;orthogonalLoop=1;jettySize=auto;html=1;exitX=0.5;exitY=1;exitDx=0;exitDy=0;entryX=0.5;entryY=0;entryDx=0;entryDy=0;" edge="1" parent="1" source="mnHLrNaxahezzFVTDHBt-2" target="mnHLrNaxahezzFVTDHBt-1">
          <mxGeometry relative="1" as="geometry" />
        </mxCell>
        <mxCell id="mnHLrNaxahezzFVTDHBt-2" value="开启设备" style="rounded=1;whiteSpace=wrap;html=1;" vertex="1" parent="1">
          <mxGeometry x="250" y="40" width="120" height="50" as="geometry" />
        </mxCell>
        <mxCell id="mnHLrNaxahezzFVTDHBt-9" style="edgeStyle=orthogonalEdgeStyle;rounded=0;orthogonalLoop=1;jettySize=auto;html=1;exitX=0.5;exitY=1;exitDx=0;exitDy=0;entryX=0.5;entryY=0;entryDx=0;entryDy=0;" edge="1" parent="1" source="mnHLrNaxahezzFVTDHBt-4" target="mnHLrNaxahezzFVTDHBt-8">
          <mxGeometry relative="1" as="geometry" />
        </mxCell>
        <mxCell id="mnHLrNaxahezzFVTDHBt-10" value="刷A卡" style="edgeLabel;html=1;align=center;verticalAlign=middle;resizable=0;points=[];" vertex="1" connectable="0" parent="mnHLrNaxahezzFVTDHBt-9">
          <mxGeometry x="-0.088" y="-1" relative="1" as="geometry">
            <mxPoint as="offset" />
          </mxGeometry>
        </mxCell>
        <mxCell id="mnHLrNaxahezzFVTDHBt-41" style="edgeStyle=orthogonalEdgeStyle;rounded=0;orthogonalLoop=1;jettySize=auto;html=1;exitX=1;exitY=0.5;exitDx=0;exitDy=0;entryX=0;entryY=0.5;entryDx=0;entryDy=0;" edge="1" parent="1" source="mnHLrNaxahezzFVTDHBt-4" target="mnHLrNaxahezzFVTDHBt-42">
          <mxGeometry relative="1" as="geometry">
            <mxPoint x="450" y="250" as="targetPoint" />
          </mxGeometry>
        </mxCell>
        <mxCell id="mnHLrNaxahezzFVTDHBt-46" value="退出程序" style="edgeLabel;html=1;align=center;verticalAlign=middle;resizable=0;points=[];" vertex="1" connectable="0" parent="mnHLrNaxahezzFVTDHBt-41">
          <mxGeometry x="-0.2036" relative="1" as="geometry">
            <mxPoint as="offset" />
          </mxGeometry>
        </mxCell>
        <mxCell id="mnHLrNaxahezzFVTDHBt-4" value="待机" style="rhombus;whiteSpace=wrap;html=1;" vertex="1" parent="1">
          <mxGeometry x="250" y="210" width="120" height="80" as="geometry" />
        </mxCell>
        <mxCell id="mnHLrNaxahezzFVTDHBt-19" style="edgeStyle=orthogonalEdgeStyle;rounded=0;orthogonalLoop=1;jettySize=auto;html=1;exitX=0.5;exitY=1;exitDx=0;exitDy=0;entryX=0.5;entryY=0;entryDx=0;entryDy=0;" edge="1" parent="1" source="mnHLrNaxahezzFVTDHBt-8" target="mnHLrNaxahezzFVTDHBt-17">
          <mxGeometry relative="1" as="geometry" />
        </mxCell>
        <mxCell id="mnHLrNaxahezzFVTDHBt-8" value="识别卡号并显示" style="rounded=0;whiteSpace=wrap;html=1;" vertex="1" parent="1">
          <mxGeometry x="250" y="340" width="120" height="60" as="geometry" />
        </mxCell>
        <mxCell id="mnHLrNaxahezzFVTDHBt-24" style="edgeStyle=orthogonalEdgeStyle;rounded=0;orthogonalLoop=1;jettySize=auto;html=1;exitX=0.5;exitY=1;exitDx=0;exitDy=0;" edge="1" parent="1" source="mnHLrNaxahezzFVTDHBt-17" target="mnHLrNaxahezzFVTDHBt-21">
          <mxGeometry relative="1" as="geometry" />
        </mxCell>
        <mxCell id="mnHLrNaxahezzFVTDHBt-26" value="A卡" style="edgeLabel;html=1;align=center;verticalAlign=middle;resizable=0;points=[];" vertex="1" connectable="0" parent="mnHLrNaxahezzFVTDHBt-24">
          <mxGeometry x="-0.0982" y="3" relative="1" as="geometry">
            <mxPoint as="offset" />
          </mxGeometry>
        </mxCell>
        <mxCell id="mnHLrNaxahezzFVTDHBt-27" style="edgeStyle=orthogonalEdgeStyle;rounded=0;orthogonalLoop=1;jettySize=auto;html=1;exitX=1;exitY=0.5;exitDx=0;exitDy=0;" edge="1" parent="1" source="mnHLrNaxahezzFVTDHBt-17" target="mnHLrNaxahezzFVTDHBt-23">
          <mxGeometry relative="1" as="geometry" />
        </mxCell>
        <mxCell id="mnHLrNaxahezzFVTDHBt-29" value="B卡" style="edgeLabel;html=1;align=center;verticalAlign=middle;resizable=0;points=[];" vertex="1" connectable="0" parent="mnHLrNaxahezzFVTDHBt-27">
          <mxGeometry x="0.4749" y="1" relative="1" as="geometry">
            <mxPoint as="offset" />
          </mxGeometry>
        </mxCell>
        <mxCell id="mnHLrNaxahezzFVTDHBt-28" style="edgeStyle=orthogonalEdgeStyle;rounded=0;orthogonalLoop=1;jettySize=auto;html=1;exitX=1;exitY=0.5;exitDx=0;exitDy=0;entryX=0.5;entryY=0;entryDx=0;entryDy=0;" edge="1" parent="1" source="mnHLrNaxahezzFVTDHBt-17" target="mnHLrNaxahezzFVTDHBt-22">
          <mxGeometry relative="1" as="geometry" />
        </mxCell>
        <mxCell id="mnHLrNaxahezzFVTDHBt-30" value="其他" style="edgeLabel;html=1;align=center;verticalAlign=middle;resizable=0;points=[];" vertex="1" connectable="0" parent="mnHLrNaxahezzFVTDHBt-28">
          <mxGeometry x="0.6946" y="-3" relative="1" as="geometry">
            <mxPoint as="offset" />
          </mxGeometry>
        </mxCell>
        <mxCell id="mnHLrNaxahezzFVTDHBt-17" value="判断卡片类型" style="rhombus;whiteSpace=wrap;html=1;" vertex="1" parent="1">
          <mxGeometry x="250" y="420" width="120" height="80" as="geometry" />
        </mxCell>
        <mxCell id="mnHLrNaxahezzFVTDHBt-32" style="edgeStyle=orthogonalEdgeStyle;rounded=0;orthogonalLoop=1;jettySize=auto;html=1;exitX=0.5;exitY=1;exitDx=0;exitDy=0;entryX=0.5;entryY=0;entryDx=0;entryDy=0;" edge="1" parent="1" source="mnHLrNaxahezzFVTDHBt-21" target="mnHLrNaxahezzFVTDHBt-31">
          <mxGeometry relative="1" as="geometry" />
        </mxCell>
        <mxCell id="mnHLrNaxahezzFVTDHBt-21" value="开启继电器，开启LED灯" style="rounded=0;whiteSpace=wrap;html=1;" vertex="1" parent="1">
          <mxGeometry x="250" y="555" width="120" height="60" as="geometry" />
        </mxCell>
        <mxCell id="mnHLrNaxahezzFVTDHBt-39" style="edgeStyle=orthogonalEdgeStyle;rounded=0;orthogonalLoop=1;jettySize=auto;html=1;exitX=0.5;exitY=1;exitDx=0;exitDy=0;entryX=0;entryY=0.5;entryDx=0;entryDy=0;" edge="1" parent="1" source="mnHLrNaxahezzFVTDHBt-22" target="mnHLrNaxahezzFVTDHBt-4">
          <mxGeometry relative="1" as="geometry" />
        </mxCell>
        <mxCell id="mnHLrNaxahezzFVTDHBt-22" value="无响应" style="rounded=0;whiteSpace=wrap;html=1;" vertex="1" parent="1">
          <mxGeometry x="580" y="750" width="120" height="60" as="geometry" />
        </mxCell>
        <mxCell id="mnHLrNaxahezzFVTDHBt-37" style="edgeStyle=orthogonalEdgeStyle;rounded=0;orthogonalLoop=1;jettySize=auto;html=1;exitX=0.5;exitY=1;exitDx=0;exitDy=0;" edge="1" parent="1" source="mnHLrNaxahezzFVTDHBt-23" target="mnHLrNaxahezzFVTDHBt-33">
          <mxGeometry relative="1" as="geometry" />
        </mxCell>
        <mxCell id="mnHLrNaxahezzFVTDHBt-23" value="关闭继电器" style="rounded=0;whiteSpace=wrap;html=1;" vertex="1" parent="1">
          <mxGeometry x="410" y="555" width="120" height="60" as="geometry" />
        </mxCell>
        <mxCell id="mnHLrNaxahezzFVTDHBt-35" style="edgeStyle=orthogonalEdgeStyle;rounded=0;orthogonalLoop=1;jettySize=auto;html=1;exitX=0.5;exitY=1;exitDx=0;exitDy=0;entryX=0.5;entryY=0;entryDx=0;entryDy=0;" edge="1" parent="1" source="mnHLrNaxahezzFVTDHBt-31" target="mnHLrNaxahezzFVTDHBt-34">
          <mxGeometry relative="1" as="geometry" />
        </mxCell>
        <mxCell id="mnHLrNaxahezzFVTDHBt-31" value="Sleep" style="rounded=0;whiteSpace=wrap;html=1;" vertex="1" parent="1">
          <mxGeometry x="250" y="660" width="120" height="60" as="geometry" />
        </mxCell>
        <mxCell id="mnHLrNaxahezzFVTDHBt-38" style="edgeStyle=orthogonalEdgeStyle;rounded=0;orthogonalLoop=1;jettySize=auto;html=1;exitX=0.5;exitY=1;exitDx=0;exitDy=0;entryX=0;entryY=0.5;entryDx=0;entryDy=0;" edge="1" parent="1" source="mnHLrNaxahezzFVTDHBt-33" target="mnHLrNaxahezzFVTDHBt-4">
          <mxGeometry relative="1" as="geometry" />
        </mxCell>
        <mxCell id="mnHLrNaxahezzFVTDHBt-33" value="关闭LED灯" style="rounded=0;whiteSpace=wrap;html=1;" vertex="1" parent="1">
          <mxGeometry x="410" y="750" width="120" height="60" as="geometry" />
        </mxCell>
        <mxCell id="mnHLrNaxahezzFVTDHBt-36" style="edgeStyle=orthogonalEdgeStyle;rounded=0;orthogonalLoop=1;jettySize=auto;html=1;exitX=0.5;exitY=1;exitDx=0;exitDy=0;entryX=0;entryY=0.5;entryDx=0;entryDy=0;" edge="1" parent="1" source="mnHLrNaxahezzFVTDHBt-34" target="mnHLrNaxahezzFVTDHBt-4">
          <mxGeometry relative="1" as="geometry" />
        </mxCell>
        <mxCell id="mnHLrNaxahezzFVTDHBt-34" value="关闭继电器" style="rounded=0;whiteSpace=wrap;html=1;" vertex="1" parent="1">
          <mxGeometry x="250" y="750" width="120" height="60" as="geometry" />
        </mxCell>
        <mxCell id="mnHLrNaxahezzFVTDHBt-42" value="关机退出" style="rounded=1;whiteSpace=wrap;html=1;" vertex="1" parent="1">
          <mxGeometry x="480" y="220" width="120" height="60" as="geometry" />
        </mxCell>
      </root>
    </mxGraphModel>
  </diagram>
</mxfile>
